<?xml version="1.0" encoding="iso-8859-1"?>
<!-- Uploaded to: SVG Repo, www.svgrepo.com, Generator: SVG Repo Mixer Tools -->
<svg fill="#000000" height="800px" width="800px" version="1.1" id="Layer_1" xmlns="http://www.w3.org/2000/svg" xmlns:xlink="http://www.w3.org/1999/xlink" 
	 viewBox="0 0 512 512" xml:space="preserve">
<g>
	<g>
		<g>
			<path d="M509.572,208.138l-49.573-49.853c-0.001-0.001-0.002-0.003-0.003-0.004s-0.002-0.002-0.003-0.003l-82.088-82.553
				c-1.567-1.576-3.698-2.462-5.919-2.462h-68.434h-95.101h-68.434c-2.222,0-4.352,0.886-5.919,2.462l-82.088,82.553
				c-0.001,0.001-0.002,0.002-0.003,0.003s-0.002,0.003-0.003,0.004l-20.316,20.432c-0.001,0.001-0.002,0.002-0.003,0.003
				s-0.002,0.003-0.004,0.004l-29.25,29.413c-3.238,3.256-3.238,8.516,0,11.772l66.689,67.068c1.567,1.576,3.698,2.462,5.919,2.462
				c2.222,0,4.352-0.886,5.919-2.462l49.508-49.79l0.853-0.858v194.063c0,4.61,3.736,8.348,8.348,8.348h123.639
				c4.611,0,8.348-3.738,8.348-8.348s-3.736-8.348-8.348-8.348H148.014v-205.95c0-3.38-2.039-6.428-5.165-7.717
				c-3.128-1.29-6.721-0.568-9.104,1.831l-9.168,9.22L69.662,164.2l73.824-74.243h60.977l45.045,55.715
				c1.585,1.96,3.97,3.1,6.491,3.1c2.521,0,4.906-1.139,6.491-3.1l45.045-55.715h60.977l73.824,74.243l-54.916,55.228l-9.168-9.22
				c-2.384-2.396-5.978-3.122-9.104-1.831c-3.125,1.289-5.165,4.336-5.165,7.717v205.95h-48.925c-4.611,0-8.348,3.738-8.348,8.348
				s3.736,8.348,8.348,8.348h57.273c4.611,0,8.348-3.738,8.348-8.348V236.328l50.363,50.649c1.567,1.576,3.698,2.462,5.919,2.462
				c2.222,0,4.352-0.886,5.919-2.462l66.689-67.068C512.81,216.652,512.81,211.393,509.572,208.138z M75.037,269.251L20.12,214.022
				l17.446-17.545l54.916,55.228L75.037,269.251z M112.807,231.267l-8.552,8.6l-54.916-55.228l8.552-8.601L112.807,231.267z
				 M256,127.145l-30.067-37.189h60.132L256,127.145z M399.193,231.268l54.916-55.229l8.552,8.599l-54.916,55.229L399.193,231.268z
				 M436.963,269.251l-17.447-17.546l54.916-55.229l17.447,17.546L436.963,269.251z"/>
			<path d="M250.115,222.565c0-21.297-18.601-32.899-37.043-32.899c-18.124,0-35.93,11.126-35.93,30.515
				c0,10.013,4.769,12.873,11.129,12.873c8.107,0,13.037-4.451,13.037-9.059c0-8.742,5.564-11.92,11.924-11.92
				c8.902,0,12.082,6.199,12.082,11.284c0,20.184-50.08,34.489-50.08,59.441v15.417c0,4.609,6.36,7.629,10.811,7.629h56.598
				c3.974,0,7.472-5.245,7.472-10.967s-3.498-10.648-7.472-10.648h-41.655v-1.43C200.989,268.338,250.115,257.054,250.115,222.565z"
				/>
			<path d="M258.068,272.152v1.907c0,23.681,17.171,32.741,39.111,32.741c21.939,0,38.951-9.059,38.951-32.741v-1.907
				c0-16.371-7.79-25.906-19.555-29.88c9.381-3.179,15.74-11.126,15.74-24.317c0-19.867-14.626-28.29-35.134-28.29
				c-20.51,0-35.135,8.423-35.135,28.29c0,13.192,6.359,21.138,15.74,24.317C266.016,246.246,258.068,255.781,258.068,272.152z
				 M297.178,209.532c7.154,0,11.287,3.496,11.287,11.602c0,8.264-4.134,11.443-11.287,11.443c-7.155,0-11.289-3.178-11.289-11.443
				C285.891,213.028,290.024,209.532,297.178,209.532z M282.87,267.543c0-10.331,5.405-15.098,14.308-15.098
				c8.902,0,14.149,4.768,14.149,15.098v3.496c0,10.648-5.087,15.893-14.149,15.893c-8.744,0-14.308-4.927-14.308-15.893V267.543z"
				/>
		</g>
	</g>
</g>
</svg>